<svg xmlns="http://www.w3.org/2000/svg" xmlns:xlink="http://www.w3.org/1999/xlink" width="1080" zoomAndPan="magnify" viewBox="0 0 810 809.999993" height="1080" preserveAspectRatio="xMidYMid meet" version="1.0"><defs><clipPath id="df66ddbdfe"><path d="M 118.027344 0 L 691 0 L 691 810 L 118.027344 810 Z M 118.027344 0 " clip-rule="nonzero"/></clipPath></defs><g clip-path="url(#df66ddbdfe)"><path fill="#B4281E" d="M 201.101562 609.296875 C 145.445312 553.613281 118.042969 486.804688 118.898438 408.851562 C 118.898438 329.191406 147.15625 261.523438 204.53125 204.128906 L 408.324219 0.269531 L 608.695312 200.703125 C 664.359375 257.238281 691.757812 324.054688 690.898438 402 C 690.046875 481.660156 661.785156 549.328125 605.273438 605.863281 L 553.894531 656.40625 L 267.039062 369.453125 C 263.613281 381.441406 261.902344 394.289062 261.902344 407.140625 C 261.902344 446.546875 275.601562 479.945312 303.003906 507.359375 L 401.476562 605.863281 C 457.753906 662.15625 457.753906 753.433594 401.476562 809.730469 Z M 543.621094 441.40625 C 546.191406 429.410156 547.90625 417.421875 547.90625 404.574219 C 547.90625 364.3125 534.199219 330.90625 506.796875 302.640625 L 406.613281 202.417969 L 355.234375 253.8125 L 543.621094 441.40625 " fill-opacity="1" fill-rule="nonzero"/></g></svg>